<svg width="235" height="192" viewBox="0 0 235 192" fill="none" xmlns="http://www.w3.org/2000/svg">
<g clip-path="url(#clip0_1936_4699)">
<path d="M51.5232 181.245C51.2647 180.421 50.4892 180.297 50.0549 180.297C49.6207 180.297 48.8452 180.421 48.5763 181.255L45.9914 189.198C45.9914 189.198 45.9707 189.28 45.9707 189.301C45.9707 189.435 46.0948 189.548 46.2602 189.548H47.0874C47.2218 189.548 47.3562 189.445 47.3873 189.332L48.2765 186.561H51.8231L52.7226 189.332C52.764 189.466 52.8777 189.548 53.0121 189.548H53.8393C54.0151 189.548 54.1289 189.455 54.1289 189.301C54.1289 189.27 54.1289 189.229 54.1082 189.198L51.5232 181.235V181.245ZM50.0549 181.358C50.1583 181.358 50.2307 181.42 50.2721 181.544L51.5232 185.5H48.566L49.8171 181.544C49.8585 181.42 49.9309 181.358 50.0446 181.358H50.0549Z" fill="#002E7E"/>
<path d="M61.5014 182.656C60.8397 182.656 60.2089 182.832 59.5782 183.202V183.038C59.5782 182.873 59.4438 182.749 59.2577 182.749H58.5959C58.4201 182.749 58.2754 182.873 58.2754 183.038V189.27C58.2754 189.425 58.4201 189.559 58.5959 189.559H59.2784C59.4541 189.559 59.6092 189.425 59.6092 189.27V184.181C60.271 183.841 60.85 183.687 61.4911 183.687C61.7909 183.687 61.8323 183.532 61.8323 183.429V182.924C61.8323 182.821 61.7909 182.656 61.4911 182.656H61.5014Z" fill="#002E7E"/>
<path d="M69.8149 188.673H69.0291C68.5224 188.673 68.3259 188.611 68.3259 187.952V183.738H69.7839C69.97 183.738 70.1147 183.604 70.1147 183.45V183.038C70.1147 182.873 69.97 182.749 69.7839 182.749H68.3259V181.462C68.3259 181.317 68.2122 181.204 68.0674 181.204H68.0157L67.2816 181.307C67.1058 181.338 66.9818 181.451 66.9818 181.596V182.749H65.6789C65.4928 182.749 65.3584 182.863 65.3584 183.017V183.347C65.3584 183.491 65.4825 183.594 65.6686 183.615L66.9818 183.749V187.972C66.9818 189.384 67.6642 189.651 68.936 189.651C69.2048 189.651 69.5771 189.631 69.8562 189.59C70.0527 189.559 70.1561 189.476 70.1561 189.332V188.91C70.1561 188.693 69.8976 188.693 69.8149 188.693V188.673Z" fill="#002E7E"/>
<path d="M75.419 182.739H74.7469C74.5608 182.739 74.416 182.873 74.416 183.027V189.26C74.416 189.425 74.5608 189.548 74.7469 189.548H75.419C75.6051 189.548 75.7499 189.414 75.7499 189.26V183.027C75.7499 182.863 75.6051 182.739 75.419 182.739Z" fill="#002E7E"/>
<path d="M75.4398 180.205H74.7264C74.5403 180.205 74.3955 180.339 74.3955 180.493V181.472C74.3955 181.637 74.5403 181.76 74.7264 181.76H75.4398C75.626 181.76 75.7707 181.626 75.7707 181.472V180.493C75.7707 180.328 75.626 180.205 75.4398 180.205Z" fill="#002E7E"/>
<path d="M84.0216 185.932L82.6361 185.211C82.0157 184.892 81.6952 184.665 81.6952 184.325C81.6952 183.769 82.1191 183.666 82.9463 183.666C83.5253 183.666 84.2491 183.697 85.1177 183.769H85.159C85.3451 183.769 85.4485 183.676 85.4485 183.511V183.11C85.4485 182.996 85.3968 182.852 85.1383 182.821C84.4249 182.718 83.6908 182.667 82.9463 182.667C81.2092 182.667 80.3613 183.213 80.3613 184.336C80.3613 185.036 80.8059 185.592 81.8192 186.128L83.2358 186.859C84.032 187.272 84.2595 187.488 84.2595 187.828C84.2595 188.415 83.8872 188.652 82.9256 188.652C82.4086 188.652 81.385 188.59 80.7336 188.518H80.6819C80.5061 188.518 80.382 188.621 80.382 188.745V189.167C80.382 189.311 80.4957 189.414 80.7129 189.455C81.354 189.589 82.3052 189.641 82.936 189.641C84.6834 189.641 85.6036 189.012 85.6036 187.828C85.6036 187.055 85.1694 186.52 84.0423 185.943L84.0216 185.932Z" fill="#002E7E"/>
<path d="M92.7179 182.657C91.7357 182.657 91.0946 182.729 90.5466 182.811C90.3191 182.842 90.2054 182.935 90.2054 183.089V183.512C90.2054 183.604 90.2467 183.759 90.5052 183.759H90.5776C91.1566 183.707 91.8184 183.656 92.7179 183.656C93.7829 183.656 94.1655 184.006 94.1655 184.985V185.428H93.1832C90.7844 185.428 89.7607 186.036 89.7607 187.457V187.601C89.7607 188.528 90.164 189.631 92.0976 189.631C92.7593 189.631 93.4107 189.456 94.2069 189.064V189.25C94.2069 189.414 94.3516 189.538 94.5378 189.538H95.1788C95.365 189.538 95.5097 189.404 95.5097 189.25V184.985C95.5097 183.409 94.5998 182.636 92.7283 182.636L92.7179 182.657ZM91.0946 187.457C91.0946 186.674 91.4048 186.303 93.1832 186.303H94.1655V188.199C93.4624 188.528 92.9144 188.673 92.325 188.673C91.5806 188.673 91.0842 188.487 91.0842 187.612V187.467L91.0946 187.457Z" fill="#002E7E"/>
<path d="M103.709 182.656C102.944 182.656 102.334 182.801 101.538 183.182V183.027C101.538 182.863 101.403 182.739 101.217 182.739H100.514C100.338 182.739 100.193 182.863 100.193 183.027V189.26C100.193 189.414 100.338 189.548 100.514 189.548H101.196C101.372 189.548 101.527 189.414 101.527 189.26V184.14C102.23 183.831 102.851 183.676 103.368 183.676C104.464 183.676 104.857 184.088 104.857 185.242V189.26C104.857 189.425 105.001 189.548 105.188 189.548H105.86C106.046 189.548 106.19 189.414 106.19 189.26V185.242C106.19 183.522 105.353 182.656 103.709 182.656Z" fill="#002E7E"/>
<path d="M125.34 180.38H124.626C124.44 180.38 124.295 180.514 124.295 180.668V184.161H119.612V180.668C119.612 180.503 119.467 180.38 119.281 180.38H118.567C118.381 180.38 118.236 180.514 118.236 180.668V189.25C118.236 189.414 118.381 189.538 118.567 189.538H119.281C119.467 189.538 119.612 189.404 119.612 189.25V185.242H124.295V189.25C124.295 189.414 124.44 189.538 124.626 189.538H125.34C125.526 189.538 125.671 189.404 125.671 189.25V180.668C125.671 180.503 125.526 180.38 125.34 180.38Z" fill="#002E7E"/>
<path d="M133.415 182.656C131.44 182.656 130.262 183.738 130.262 185.562V186.664C130.262 187.776 130.686 189.641 133.488 189.641C134.367 189.641 135.142 189.579 136 189.435C136.228 189.394 136.321 189.301 136.321 189.105V188.693C136.321 188.559 136.207 188.477 136.042 188.477H135.969C135.37 188.559 134.356 188.611 133.488 188.611C132.164 188.611 131.596 188.034 131.596 186.664V186.54H136.228C136.414 186.54 136.548 186.417 136.548 186.221V185.562C136.548 183.718 135.411 182.656 133.415 182.656ZM131.596 185.562C131.596 184.325 132.206 183.687 133.415 183.687C134.625 183.687 135.194 184.243 135.194 185.562V185.623H131.585V185.562H131.596Z" fill="#002E7E"/>
<path d="M144.231 182.656C143.569 182.656 142.938 182.832 142.308 183.202V183.038C142.308 182.873 142.173 182.749 141.987 182.749H141.325C141.15 182.749 141.005 182.873 141.005 183.038V189.27C141.005 189.425 141.15 189.559 141.325 189.559H142.008C142.184 189.559 142.339 189.425 142.339 189.27V184.181C143 183.841 143.58 183.687 144.221 183.687C144.52 183.687 144.562 183.532 144.562 183.429V182.924C144.562 182.821 144.52 182.656 144.221 182.656H144.231Z" fill="#002E7E"/>
<path d="M149.887 180.205H149.174C148.988 180.205 148.843 180.339 148.843 180.493V181.472C148.843 181.637 148.988 181.76 149.174 181.76H149.887C150.073 181.76 150.218 181.626 150.218 181.472V180.493C150.218 180.328 150.073 180.205 149.887 180.205Z" fill="#002E7E"/>
<path d="M149.866 182.739H149.194C149.008 182.739 148.863 182.873 148.863 183.027V189.26C148.863 189.425 149.008 189.548 149.194 189.548H149.866C150.052 189.548 150.197 189.414 150.197 189.26V183.027C150.197 182.863 150.052 182.739 149.866 182.739Z" fill="#002E7E"/>
<path d="M158.903 188.673H158.117C157.61 188.673 157.414 188.611 157.414 187.952V183.738H158.872C159.058 183.738 159.203 183.604 159.203 183.45V183.038C159.203 182.873 159.058 182.749 158.872 182.749H157.414V181.462C157.414 181.317 157.3 181.204 157.155 181.204H157.104L156.37 181.307C156.194 181.338 156.07 181.451 156.07 181.596V182.749H154.767C154.581 182.749 154.446 182.863 154.446 183.017V183.347C154.446 183.491 154.57 183.594 154.756 183.615L156.07 183.749V187.972C156.07 189.384 156.752 189.651 158.024 189.651C158.293 189.651 158.665 189.631 158.944 189.59C159.141 189.559 159.244 189.476 159.244 189.332V188.91C159.244 188.693 158.985 188.693 158.903 188.693V188.673Z" fill="#002E7E"/>
<path d="M166.037 182.657C165.055 182.657 164.414 182.729 163.866 182.811C163.638 182.842 163.525 182.935 163.525 183.089V183.512C163.525 183.604 163.566 183.759 163.825 183.759H163.897C164.476 183.707 165.138 183.656 166.037 183.656C167.102 183.656 167.485 184.006 167.485 184.985V185.428H166.503C164.104 185.428 163.08 186.036 163.08 187.457V187.601C163.08 188.528 163.483 189.631 165.417 189.631C166.079 189.631 166.73 189.456 167.526 189.064V189.25C167.526 189.414 167.671 189.538 167.857 189.538H168.498C168.684 189.538 168.829 189.404 168.829 189.25V184.985C168.829 183.409 167.919 182.636 166.048 182.636L166.037 182.657ZM164.414 187.457C164.414 186.674 164.724 186.303 166.503 186.303H167.485V188.199C166.782 188.528 166.234 188.673 165.644 188.673C164.9 188.673 164.404 188.487 164.404 187.612V187.467L164.414 187.457Z" fill="#002E7E"/>
<path d="M179.614 182.739H176.553C173.803 182.739 173.4 184.119 173.4 184.944V185.036C173.4 185.634 173.596 186.087 174.01 186.448C173.679 186.643 173.472 186.973 173.472 187.334C173.472 187.704 173.648 188.147 174.144 188.343H174.154C173.741 188.652 173.327 189.198 173.327 189.888V190.002C173.327 190.908 173.896 191.99 176.595 191.99C178.776 191.99 179.841 191.351 179.841 190.053V189.95C179.841 188.714 178.332 188.384 177.112 188.106L175.023 187.643C174.692 187.57 174.63 187.457 174.63 187.303C174.63 187.148 174.723 187.024 174.93 186.942C175.395 187.107 175.902 187.179 176.553 187.179C178.652 187.179 179.707 186.458 179.707 185.047V184.954C179.707 184.428 179.572 184.027 179.283 183.728L179.696 183.656C179.841 183.635 179.986 183.584 179.986 183.378V183.058C179.986 182.894 179.81 182.739 179.614 182.739ZM174.713 184.944C174.713 183.831 175.695 183.687 176.553 183.687C177.411 183.687 178.394 183.831 178.394 184.944V185.036C178.394 185.634 178.177 186.231 176.553 186.231C175.333 186.231 174.713 185.829 174.713 185.036V184.944ZM178.497 190.053C178.497 190.682 178.177 191.073 176.595 191.073C175.623 191.073 174.63 190.949 174.63 190.012V189.899C174.63 189.322 174.868 189.013 175.281 188.704L176.843 189.054C178.156 189.342 178.507 189.538 178.507 189.96V190.063L178.497 190.053Z" fill="#002E7E"/>
<path d="M187.141 182.656C185.166 182.656 183.987 183.738 183.987 185.562V186.664C183.987 187.776 184.411 189.641 187.213 189.641C188.092 189.641 188.868 189.579 189.726 189.435C189.953 189.394 190.046 189.301 190.046 189.105V188.693C190.046 188.559 189.933 188.477 189.767 188.477H189.695C189.095 188.559 188.082 188.611 187.213 188.611C185.89 188.611 185.321 188.034 185.321 186.664V186.54H189.953C190.14 186.54 190.274 186.417 190.274 186.221V185.562C190.274 183.718 189.137 182.656 187.141 182.656ZM185.321 185.562C185.321 184.325 185.931 183.687 187.141 183.687C188.351 183.687 188.919 184.243 188.919 185.562V185.623H185.311V185.562H185.321Z" fill="#002E7E"/>
<path d="M222.845 115.563C220.26 113.677 215.39 108.928 208.235 101.326L168.933 59.0175L201.142 29.2667C206.518 24.1777 210.737 20.8812 213.777 19.3772C216.817 17.8732 220.974 16.8636 226.247 16.3382V13.289H183.006V16.3382C186.614 16.3382 189.396 16.6885 191.35 17.3787C193.314 18.0689 194.297 19.5111 194.297 21.7053C194.297 24.8061 188.517 31.8214 176.957 42.772C170.505 48.8293 162.191 56.1743 152.027 64.807V31.1003C152.027 25.2182 152.968 21.3654 154.85 19.5523C156.732 17.7289 160.889 16.6679 167.341 16.3382V13.289H120.356V16.3382C126.695 16.7709 130.769 17.8526 132.568 19.5935C134.367 21.3345 135.266 25.1873 135.266 31.1312V102.459C135.266 109.433 134.46 113.842 132.847 115.686C131.306 117.458 127.418 118.468 121.194 118.622C111.795 118.159 104.588 116.191 99.2217 113.677C97.6397 112.936 96.0887 112.039 94.5687 111.04C98.777 107.939 102.51 104.231 105.684 99.9455C113.377 89.4997 117.285 76.5507 117.285 61.459C117.285 42.3805 111.144 26.9385 99.0355 15.5759C88.0236 5.24348 74.4577 0 58.7101 0C42.9625 0 29.0657 5.29499 18.1158 15.751C6.18359 27.1754 0.134766 42.5556 0.134766 61.459C0.134766 78.9201 5.22198 93.2495 15.2516 104.045C17.423 106.384 19.977 108.661 22.8825 110.814L29.0037 114.862H29.0243C31.3301 116.243 33.8117 117.582 36.438 118.849C41.1944 120.765 48.0704 122.619 56.942 122.619C61.2744 122.619 66.0721 122.176 71.335 121.084C74.985 120.322 78.4282 119.323 81.5715 118.117C82.0988 117.911 82.6055 117.674 83.1328 117.458C85.3766 118.313 87.7341 119.055 90.2673 119.642C97.2467 121.259 105.25 122.073 114.266 122.073H120.356H166.937V119.261C160.702 118.725 156.66 117.644 154.809 116.006C152.958 114.368 152.027 110.494 152.027 104.385V74.6243L157.115 69.9268L188.899 104.138C191.153 106.611 192.808 108.784 193.862 110.659C194.907 112.534 195.434 113.935 195.434 114.842C195.434 116.5 194.628 117.623 193.015 118.179C191.402 118.746 188.31 119.106 183.74 119.261V122.073H234.219V119.261C229.214 118.674 225.42 117.437 222.835 115.552L222.845 115.563ZM58.7514 115.377C48.2978 115.377 39.3435 110.968 32.1573 102.263C24.9401 93.5276 21.2901 79.806 21.2901 61.4692C21.2901 43.1325 24.9608 29.3182 32.209 20.5825C39.4262 11.8777 48.3599 7.46861 58.7618 7.46861C69.1637 7.46861 77.663 11.7231 85.0147 20.1189C92.3973 28.5352 96.1404 42.4526 96.1404 61.4692C96.1404 80.4859 92.4387 94.1045 85.1388 102.603C85.0457 102.706 84.9527 102.799 84.8699 102.912C81.0338 99.0183 77.4356 95.0832 74.3026 90.8904C72.5655 88.5623 68.5019 82.7316 68.1607 82.3093C64.1075 77.21 57.4073 76.0253 53.1989 79.6618C50.4899 82.0002 49.4869 85.7706 50.19 89.5203C50.4795 91.4879 51.255 93.4555 52.5165 95.2171C52.8164 95.6291 53.1369 96.0309 53.4781 96.4224C53.4988 96.443 54.7189 97.7101 55.391 98.3487C56.8592 99.7498 58.4102 101.388 61.171 103.778C64.9243 107.023 69.2464 110.474 71.9761 112.029C72.1933 112.153 72.4001 112.266 72.6172 112.39C68.3365 114.388 63.7042 115.398 58.7618 115.398L58.7514 115.377ZM65.3276 94.8977C62.5875 97.2671 58.2138 96.4945 55.5771 93.1671C52.9301 89.8397 53.0128 85.2246 55.7632 82.8552C58.5033 80.4859 62.877 81.2585 65.5137 84.5859C68.1607 87.9133 68.078 92.5284 65.3276 94.8977Z" fill="#002E7E"/>
<path d="M137.096 166.164C136.31 166.071 135.71 165.875 135.317 165.587C134.904 165.278 134.108 164.505 132.95 163.259L126.632 156.408L131.781 151.618C132.65 150.794 133.332 150.258 133.808 150.021C134.283 149.784 134.945 149.619 135.783 149.537H135.927V148.713H128.524V149.537H128.69C129.258 149.537 129.693 149.589 130.003 149.702C130.261 149.795 130.375 149.97 130.375 150.268C130.375 150.526 130.013 151.309 127.583 153.616C126.591 154.554 125.308 155.697 123.788 157.006V151.814C123.788 150.897 123.923 150.289 124.202 150.021C124.388 149.836 124.885 149.599 126.136 149.537H126.291V148.713H118.277V149.527H118.432C119.663 149.619 120.139 149.846 120.325 150.031C120.511 150.217 120.718 150.66 120.718 151.814V163.557C120.718 164.928 120.521 165.443 120.366 165.628C120.201 165.813 119.746 166.061 118.432 166.164H118.277V166.947H126.229V166.174H126.074C125.102 166.081 124.461 165.906 124.192 165.669C124.006 165.504 123.788 165.061 123.788 163.877V159.045L124.45 158.438L129.537 163.949C129.899 164.34 130.158 164.691 130.323 164.989C130.52 165.34 130.561 165.515 130.561 165.607C130.561 165.813 130.468 165.937 130.272 166.009C130.023 166.092 129.527 166.153 128.803 166.174H128.648V166.957H137.23V166.195L137.086 166.174L137.096 166.164Z" fill="#002E7E"/>
<path d="M150.88 148.713V149.506H151.024C151.965 149.609 152.606 149.826 152.927 150.165C153.144 150.392 153.413 151.041 153.413 152.772V159.684C153.413 161.343 153.206 162.589 152.803 163.372C152.079 164.763 150.632 165.463 148.491 165.463C146.527 165.463 145.224 164.794 144.531 163.424C144.159 162.672 143.962 161.6 143.962 160.24V151.742C143.962 150.588 144.19 150.145 144.376 149.98C144.572 149.805 145.058 149.589 146.299 149.506H146.444V148.703H138.451V149.496H138.596C139.816 149.599 140.302 149.826 140.488 149.99C140.674 150.155 140.891 150.588 140.891 151.731V160.034C140.891 161.703 141.191 163.063 141.77 164.083C142.856 165.999 144.903 166.967 147.881 166.967C150.859 166.967 152.968 165.989 154.044 164.042C154.623 162.991 154.923 161.528 154.923 159.674V152.761C154.923 151.412 155.067 150.547 155.367 150.196C155.657 149.846 156.318 149.619 157.311 149.506H157.456V148.703H150.88V148.713Z" fill="#002E7E"/>
<path d="M179.376 148.713V149.517H179.531C180.027 149.537 180.399 149.599 180.647 149.702C181.051 149.867 181.247 150.155 181.247 150.578C181.247 150.701 181.226 150.876 181.185 151.093C181.113 151.484 180.989 151.927 180.802 152.432L177.628 161.054L173.937 151.474C173.802 151.113 173.709 150.876 173.678 150.763C173.647 150.66 173.637 150.547 173.637 150.403C173.637 150.011 173.792 149.764 174.123 149.64C174.361 149.558 174.805 149.517 175.446 149.506H175.612V148.692H168.167V149.496H168.322C168.86 149.506 169.263 149.568 169.522 149.681C169.956 149.867 170.266 150.227 170.483 150.773L171.703 153.977L169.067 160.982L165.375 151.371C165.282 151.113 165.21 150.907 165.169 150.742C165.127 150.598 165.107 150.444 165.107 150.279C165.107 149.96 165.262 149.743 165.592 149.62C165.799 149.548 166.161 149.506 166.678 149.486H166.833V148.672H159.988V149.475H160.143C160.878 149.527 161.395 149.805 161.736 150.351C162.098 150.928 162.739 152.504 163.659 155.059L167.919 166.916H168.55L172.52 155.976L176.646 166.916H177.287L182.87 151.01C183.077 150.433 183.398 150.021 183.811 149.795C184.049 149.661 184.39 149.558 184.845 149.486L184.98 149.465V148.672H179.376V148.713Z" fill="#002E7E"/>
<path d="M202.269 162.053L202.227 162.146C201.566 163.64 200.821 164.598 200.015 164.979C199.188 165.37 197.885 165.566 196.127 165.566C194.1 165.566 193.418 165.494 193.201 165.422C193.108 165.391 192.818 165.309 192.818 164.629V158.087H196.727C198.05 158.087 198.557 158.334 198.743 158.541C199.032 158.85 199.27 159.529 199.467 160.549L199.487 160.683H200.397V154.111H199.487L199.467 154.245C199.281 155.254 199.043 155.924 198.764 156.243C198.484 156.552 197.802 156.707 196.737 156.707H192.829V150.825C192.829 150.413 192.891 150.258 192.932 150.196C192.953 150.165 193.056 150.073 193.511 150.073H197.099C198.598 150.073 199.57 150.237 199.984 150.567C200.397 150.886 200.718 151.638 200.925 152.782L200.945 152.916H201.917L201.824 148.723H187.493V149.537H187.638C188.796 149.63 189.251 149.867 189.427 150.052C189.602 150.237 189.809 150.691 189.809 151.824V163.866C189.809 165.072 189.603 165.494 189.437 165.649C189.179 165.875 188.569 166.04 187.638 166.143H187.493V166.967H202.031L203.313 162.074H202.269V162.053Z" fill="#002E7E"/>
<path d="M217.055 148.713V149.527H217.21C218.389 149.64 218.854 149.877 219.04 150.052C219.443 150.464 219.65 151.402 219.65 152.834V161.384L209.496 148.764L209.445 148.703H204.585V149.527H204.74C205.267 149.547 205.671 149.609 205.929 149.712C206.177 149.815 206.498 150.083 206.88 150.536L207.211 150.928V162.826C207.211 164.217 207.067 165.103 206.767 165.463C206.477 165.824 205.795 166.05 204.73 166.164H204.585V166.988H211.265V166.174L211.12 166.153C210.189 166.05 209.579 165.865 209.331 165.607C208.928 165.195 208.731 164.258 208.731 162.816V152.72L220.405 167.235L220.457 167.297H221.16V152.854C221.16 151.144 221.418 150.485 221.635 150.227C221.946 149.867 222.607 149.63 223.59 149.527H223.734V148.703H217.044L217.055 148.713Z" fill="#002E7E"/>
<path d="M232.223 150.001C232.419 149.825 232.926 149.599 234.208 149.527H234.353V148.703H226.246V149.516H226.391C227.673 149.589 228.18 149.815 228.376 149.99C228.573 150.165 228.8 150.619 228.8 151.793V163.836C228.8 165.061 228.573 165.494 228.386 165.649C228.097 165.875 227.425 166.03 226.391 166.112H226.246V166.936H234.353V166.123H234.208C233.174 166.04 232.502 165.886 232.212 165.649C232.026 165.504 231.799 165.061 231.799 163.836V151.793C231.799 150.845 231.943 150.248 232.223 149.99V150.001Z" fill="#002E7E"/>
<path d="M33.3043 148.713V161.064C33.3043 161.94 33.4284 162.641 33.6766 163.166C34.1522 164.145 35.0414 164.629 36.3236 164.629C37.2025 164.629 38.65 164.34 39.4979 163.763C39.9735 163.444 40.4699 163.001 40.9558 162.435V151.855C40.9558 150.866 40.7594 150.217 40.3665 149.908C39.9735 149.599 39.1981 149.413 38.0297 149.352V148.713H44.3266V162.301C44.3266 163.176 44.4817 163.774 44.8023 164.103C45.1228 164.433 45.7949 164.577 46.8185 164.536V165.082C46.1051 165.278 45.5778 165.422 45.2365 165.515C44.8953 165.607 44.337 165.793 43.5408 166.05C43.1996 166.164 42.4655 166.442 41.3177 166.885C41.2557 166.885 41.2143 166.854 41.204 166.802C41.1937 166.741 41.1833 166.679 41.1833 166.596V163.485C40.3044 164.526 39.4979 165.298 38.7638 165.803C37.6574 166.576 35.91 166.957 34.6795 166.957C33.5525 166.957 32.4875 166.555 31.4845 165.762C30.4712 164.979 29.9646 163.66 29.9646 161.806V151.772C29.9646 150.753 29.7474 150.073 29.3028 149.722C29.0133 149.506 28.4032 149.352 27.4727 149.259V148.723H33.3043V148.713Z" fill="#002E7E"/>
<path d="M81.9122 150.557C83.3081 151.793 84.0112 153.534 84.0112 155.8H71.2414C71.3759 158.726 72.0686 160.858 73.3198 162.198C74.5709 163.537 76.2563 164.206 77.9727 164.206C79.3582 164.206 80.5266 163.856 81.4779 163.166C82.4292 162.476 83.3081 161.487 84.1146 160.22L84.8073 160.446C84.2697 162.053 83.2564 163.547 81.7674 164.907C80.2785 166.277 78.4587 166.957 76.308 166.957C73.8264 166.957 71.7171 166.061 70.3626 164.268C69.008 162.476 68.3359 160.405 68.3359 158.067C68.3359 155.522 69.1218 153.338 70.6934 151.484C72.2651 149.64 74.5088 148.713 77.0318 148.713C78.8929 148.713 80.5266 149.331 81.9225 150.557H81.9122ZM72.2341 152.009C71.8101 152.689 71.5103 153.555 71.3242 154.585H79.8752C79.7305 153.318 79.4823 152.38 79.1204 151.762C78.4793 150.65 77.3937 150.093 75.8737 150.093C74.3537 150.093 73.0199 150.732 72.2341 152.009Z" fill="#002E7E"/>
<path d="M62.9288 150.557C64.3247 151.793 65.0278 153.534 65.0278 155.8H52.258C52.3925 158.726 53.0852 160.858 54.3364 162.198C55.5875 163.537 57.2729 164.206 58.9893 164.206C60.3748 164.206 61.5432 163.856 62.4945 163.166C63.4458 162.476 64.3247 161.487 65.1312 160.22L65.8239 160.446C65.2863 162.053 64.273 163.547 62.784 164.907C61.2951 166.277 59.4753 166.957 57.3246 166.957C54.843 166.957 52.7337 166.061 51.3792 164.268C50.0246 162.476 49.3525 160.405 49.3525 158.067C49.3525 155.522 50.1384 153.338 51.71 151.484C53.2817 149.64 55.5254 148.713 58.0484 148.713C59.9095 148.713 61.5432 149.331 62.9391 150.557H62.9288ZM53.2507 152.009C52.8267 152.689 52.5269 153.555 52.3408 154.585H60.8918C60.7471 153.318 60.4989 152.38 60.137 151.762C59.4959 150.65 58.4103 150.093 56.8903 150.093C55.3703 150.093 54.0365 150.732 53.2507 152.009Z" fill="#002E7E"/>
<path d="M87.32 166.38C88.2403 166.267 88.8917 166.04 89.2536 165.69C89.6258 165.35 89.8119 164.588 89.8119 163.403V153.586C89.8119 152.772 89.7292 152.195 89.5741 151.855C89.326 151.371 88.8193 151.123 88.0542 151.123C87.9404 151.123 87.8163 151.123 87.6923 151.144C87.5682 151.165 87.4131 151.175 87.2373 151.206V150.526C87.7646 150.371 89.0261 149.97 91.0217 149.331L92.8518 148.733C92.9449 148.733 92.9966 148.764 93.0173 148.826C93.038 148.888 93.0483 148.981 93.0483 149.094V151.937C94.2374 150.825 95.1783 150.073 95.8504 149.661C96.8637 149.032 98.6835 148.713 99.7692 148.713C100.648 148.713 101.455 148.96 102.178 149.465C103.574 150.444 104.277 152.195 104.277 154.708V163.743C104.277 164.67 104.464 165.34 104.836 165.752C105.208 166.164 105.839 166.38 106.707 166.39V166.936H98.3837V166.39C99.3349 166.256 99.9967 165.999 100.369 165.607C100.741 165.216 100.938 164.361 100.938 163.042V154.791C100.938 153.678 100.731 152.761 100.317 152.04C99.9036 151.309 99.1385 150.948 98.0321 150.948C97.267 150.948 95.7263 151.206 94.9302 151.721C94.4855 152.02 93.9272 152.504 93.2241 153.194V164.021C93.2241 164.948 93.4309 165.566 93.8445 165.886C94.2581 166.205 94.9198 166.37 95.8091 166.401V166.947H87.289V166.401L87.32 166.38Z" fill="#002E7E"/>
<path d="M20.8456 165.195C20.5043 165.041 20.1735 164.866 19.8529 164.66C20.8456 163.97 21.7038 163.125 22.4482 162.136C24.0923 159.9 24.9091 157.171 24.9091 153.946C24.9091 149.867 23.6166 146.611 21.0317 144.18C18.6845 141.976 15.8204 140.874 12.4599 140.874C9.09948 140.874 6.1733 141.986 3.83649 144.222C1.29288 146.663 0.0107422 149.908 0.0107422 153.946C0.0107422 157.686 1.08609 160.704 3.22644 163.001C3.69173 163.496 4.2294 163.98 4.83946 164.433L6.15262 165.298C6.63859 165.587 7.16593 165.875 7.72428 166.143C9.20288 166.741 11.7155 167.328 15.138 166.617C15.9031 166.452 16.6372 166.246 17.3197 165.989C17.3403 165.989 17.361 165.968 17.3817 165.968C17.8677 166.143 18.3743 166.298 18.9327 166.421C20.432 166.751 22.1484 166.916 24.0819 166.916H25.4778V166.092C23.4615 165.999 22.0036 165.711 20.8456 165.195ZM12.4703 165.628C10.1748 165.628 8.25161 164.68 6.66961 162.775C5.09795 160.869 4.31212 157.933 4.31212 153.946C4.31212 149.959 5.09795 147.003 6.67995 145.097C8.26195 143.191 10.1852 142.244 12.4703 142.244C14.7554 142.244 16.5855 143.16 18.1882 144.994C19.8012 146.828 20.6077 149.815 20.6077 153.946C20.6077 158.077 19.8116 160.992 18.2192 162.847C18.1262 162.95 18.0331 163.053 17.9401 163.156C17.0508 162.311 16.234 161.363 15.5102 160.436C15.0966 159.9 14.6106 159.293 14.2591 158.891C14.2281 158.85 14.2074 158.819 14.1764 158.778C13.3078 157.737 11.8706 157.49 10.971 158.232C10.3299 158.757 10.1335 159.643 10.3816 160.477C10.4643 160.797 10.6091 161.106 10.8262 161.394C10.8883 161.477 10.9607 161.559 11.033 161.641C11.033 161.641 11.3019 161.909 11.4466 162.033C11.7568 162.321 12.098 162.651 12.6874 163.145C13.4939 163.815 14.4245 164.516 15.0035 164.835C15.1173 164.897 15.231 164.959 15.3448 165.02C14.4555 165.412 13.4939 165.608 12.4703 165.608V165.628ZM13.5766 161.374C12.9873 161.858 12.0463 161.703 11.488 161.023C10.9193 160.343 10.94 159.396 11.5293 158.912C12.1187 158.427 13.0596 158.582 13.618 159.262C14.1867 159.942 14.166 160.889 13.5766 161.374Z" fill="#002E7E"/>
</g>
<defs>
<clipPath id="clip0_1936_4699">
<rect width="234.353" height="192" fill="white"/>
</clipPath>
</defs>
</svg>
