<svg width="316" height="19" viewBox="0 0 316 19" fill="none" xmlns="http://www.w3.org/2000/svg">
<g clip-path="url(#clip0_1936_4730)">
<path d="M17.639 0H20.6678V14.5569C20.6678 15.1706 20.5611 15.7444 20.3476 16.2781C20.1208 16.8251 19.8139 17.2921 19.4136 17.6791C19.0267 18.0794 18.5597 18.3996 18.026 18.6397C17.4923 18.8666 16.9185 18.9867 16.3048 18.9867C15.9979 18.9867 15.731 18.9733 15.4642 18.9199C15.1973 18.8799 14.9438 18.8132 14.7037 18.7198C14.21 18.5597 13.7963 18.3462 13.4628 18.0927C13.0892 17.8125 12.7956 17.519 12.5555 17.1987C12.3153 16.8785 12.1152 16.5716 11.9417 16.2781C11.8216 16.0646 11.7149 15.8778 11.6215 15.6777C11.5414 15.4909 11.4614 15.3308 11.3813 15.1973C11.3013 15.0506 11.1678 14.7971 10.9944 14.4635C10.8209 14.1299 10.6341 13.7296 10.394 13.276C10.1671 12.8223 9.92697 12.3153 9.67346 11.7816C9.41994 11.2346 9.15309 10.6875 8.87289 10.1271C8.5927 9.56671 8.3125 9.00632 8.04565 8.45927C7.77879 7.89888 7.52528 7.39185 7.28511 6.91152C7.05829 6.43118 6.8448 6.00421 6.67135 5.63062C6.49789 5.27036 6.36447 4.97683 6.24438 4.76334C6.16433 4.5632 6.07093 4.38975 5.96419 4.21629C5.87079 4.04284 5.77739 3.86938 5.68399 3.73595C5.60393 3.58919 5.45716 3.41573 5.27037 3.20225C5.07022 2.98876 4.83006 2.86868 4.52317 2.86868C4.30969 2.86868 4.09621 2.92205 3.89607 3.00211C3.69593 3.08216 3.53581 3.1889 3.41573 3.30899C3.14888 3.60253 3.02879 3.98947 3.02879 4.44312V19H0V4.44312C0 3.20225 0.400281 2.16152 1.1875 1.32093C1.57444 0.920646 2.04143 0.600421 2.57514 0.360253C3.09551 0.120084 3.69593 0 4.34972 0C5.00351 0 5.57725 0.0933989 6.08427 0.266854C6.63132 0.440309 7.11166 0.760534 7.53862 1.21419C7.79213 1.48104 8.07233 1.81461 8.35253 2.24157C8.52598 2.50843 8.69944 2.78862 8.87289 3.10885C9.04635 3.42907 9.23315 3.77598 9.41994 4.16292C9.64677 4.64326 9.98034 5.29705 10.394 6.13764C10.8209 6.97823 11.2612 7.85885 11.7149 8.77949C12.1685 9.70014 12.6088 10.5941 13.0225 11.448C13.4228 12.302 13.7563 12.9558 14.0098 13.4361C14.1032 13.5695 14.1566 13.6896 14.1966 13.7963C14.2367 13.8897 14.2633 13.9565 14.3034 13.9965C14.4368 14.25 14.5702 14.4635 14.6636 14.6503C14.757 14.8504 14.8504 15.0105 14.9438 15.1706C14.9972 15.2374 15.0639 15.3308 15.1306 15.4508C15.1973 15.5576 15.2907 15.6643 15.3708 15.7844C15.4642 15.8912 15.5843 15.9712 15.7044 16.0513C15.8378 16.118 15.9846 16.158 16.1447 16.158C16.3848 16.158 16.5983 16.118 16.8118 16.0246C16.9986 15.9312 17.1454 15.8244 17.2521 15.7044C17.519 15.4108 17.6524 15.0239 17.6524 14.5702V0H17.639Z" fill="#001944"/>
<path d="M38.3474 10.6342C38.2406 9.98036 37.9871 9.47334 37.5602 9.07306C37.0798 8.53935 36.4394 8.28584 35.6655 8.28584H24.6711V5.44385H35.8656C36.6395 5.44385 37.3467 5.59062 38.0138 5.87081C38.6809 6.15101 39.2547 6.55129 39.7617 7.05831C40.2687 7.57868 40.669 8.15242 40.9625 8.80621C41.2561 9.47334 41.4028 10.1805 41.4028 10.9544V13.4762C41.4028 14.25 41.2561 14.9705 40.9625 15.6377C40.6823 16.3048 40.2687 16.8919 39.7617 17.3989C39.2547 17.9059 38.6676 18.2929 38.0138 18.5864C37.36 18.8666 36.6395 19 35.8656 19H28.5538C27.78 19 27.0595 18.8533 26.4057 18.5864C25.7519 18.3062 25.1648 17.9059 24.6578 17.3989C24.1507 16.8919 23.7505 16.3048 23.4836 15.6377C23.1901 14.9705 23.0566 14.25 23.0566 13.4762V10.6342H38.3741H38.3474ZM37.5602 15.3708C38.0939 14.8505 38.3474 14.2233 38.3474 13.4762L26.0321 13.4495C26.0321 14.1967 26.2989 14.8505 26.8326 15.3708C27.3663 15.9045 27.9934 16.158 28.754 16.158H35.6788C36.4527 16.158 37.0798 15.8912 37.5735 15.3708" fill="#001944"/>
<path d="M65.9662 5.41724C66.7401 5.41724 67.4606 5.56401 68.1277 5.8442C68.7949 6.1244 69.3819 6.53802 69.889 7.04505C70.4093 7.56541 70.7963 8.13915 71.0765 8.79294C71.3567 9.46007 71.5034 10.1672 71.5034 10.9411V18.9868H68.5013V10.9545C68.5013 10.1939 68.2345 9.55347 67.7141 9.03311C67.4739 8.79294 67.1804 8.5928 66.8602 8.45937C66.5399 8.3126 66.1797 8.24589 65.7928 8.24589H61.7899C61.403 8.24589 61.0427 8.3126 60.7225 8.45937C60.389 8.60614 60.1088 8.79294 59.8553 9.03311C59.3349 9.55347 59.068 10.1939 59.068 10.9545V18.9868H56.0659V10.9545C56.0659 10.5809 55.9992 10.234 55.8658 9.90038C55.719 9.56681 55.5322 9.27328 55.2787 9.03311C55.0385 8.79294 54.745 8.5928 54.4114 8.45937C54.0645 8.3126 53.7176 8.24589 53.3574 8.24589H49.3279C48.9543 8.24589 48.6074 8.3126 48.2871 8.45937C47.9669 8.60614 47.6734 8.79294 47.4332 9.03311C46.9262 9.54013 46.6593 10.1806 46.6193 10.9545V18.9868H43.6172V10.9411C43.6172 10.1672 43.764 9.44673 44.0575 8.79294C44.351 8.13915 44.7513 7.56541 45.2583 7.04505C45.752 6.53802 46.3524 6.13774 47.0062 5.8442C47.66 5.55066 48.3805 5.41724 49.1544 5.41724H53.5575C54.3447 5.41724 55.0786 5.57735 55.7857 5.89757C56.4796 6.2178 57.08 6.63142 57.587 7.16513C58.094 6.64476 58.6811 6.2178 59.3616 5.89757C60.0554 5.57735 60.7892 5.41724 61.5765 5.41724H65.9795H65.9662Z" fill="#001944"/>
<path d="M89.0622 10.6342C88.9555 9.98036 88.6886 9.47334 88.275 9.07306C87.7813 8.53935 87.1542 8.28584 86.3803 8.28584H75.3726V5.44385H86.5671C87.3277 5.44385 88.0482 5.59062 88.702 5.87081C89.3691 6.15101 89.9428 6.55129 90.4498 7.05831C90.9702 7.57868 91.3705 8.15242 91.6507 8.80621C91.9442 9.47334 92.091 10.1805 92.091 10.9544V13.4762C92.091 14.25 91.9442 14.9705 91.6507 15.6377C91.3572 16.3048 90.9569 16.8919 90.4498 17.3989C89.9428 17.9059 89.3691 18.2929 88.702 18.5864C88.0482 18.8666 87.3277 19 86.5671 19H79.242C78.4814 19 77.7609 18.8533 77.0938 18.5864C76.44 18.3062 75.8529 17.9059 75.3459 17.3989C74.8256 16.8919 74.4386 16.3048 74.1584 15.6377C73.8782 14.9705 73.7314 14.25 73.7314 13.4762V10.6342H89.0622ZM88.275 15.3708C88.8087 14.8505 89.0622 14.2233 89.0622 13.4762L76.7469 13.4495C76.7469 14.1967 77.0138 14.8505 77.5341 15.3708C78.0678 15.9045 78.7083 16.158 79.4555 16.158H86.3803C87.1542 16.158 87.7813 15.8912 88.275 15.3708Z" fill="#001944"/>
<path d="M99.9503 19C99.2031 19 98.4826 18.8532 97.8155 18.573C97.1483 18.2795 96.5613 17.8792 96.0542 17.3722C95.5472 16.8919 95.1469 16.3048 94.8667 15.6376C94.5865 14.9705 94.4531 14.25 94.4531 13.4761V13.4494V0H97.4552V13.4494C97.4552 13.823 97.5219 14.1566 97.6554 14.4768C97.7888 14.7837 97.9622 15.0772 98.1891 15.3174C98.6961 15.8244 99.2965 16.1046 100.004 16.158L100.551 16.1847V19H99.937H99.9503Z" fill="#001944"/>
<path d="M128.383 8.3125C129.064 8.69944 129.651 9.2198 130.145 9.8736C130.478 10.3272 130.732 10.8343 130.919 11.368C131.105 11.915 131.199 12.5021 131.199 13.1025V13.4761C131.199 14.25 131.065 14.9705 130.785 15.6376C130.505 16.3048 130.118 16.8919 129.598 17.3989C129.091 17.9059 128.504 18.2928 127.836 18.573C127.156 18.8532 126.449 19 125.675 19H116.068C115.308 19 114.6 18.8532 113.933 18.573C113.266 18.2928 112.692 17.9059 112.172 17.3989C111.652 16.8919 111.265 16.3048 110.985 15.6376C110.704 14.9705 110.558 14.25 110.558 13.4761V5.52388C110.558 4.75 110.704 4.02949 110.985 3.36236C111.265 2.69522 111.652 2.10815 112.172 1.58778C112.692 1.08076 113.266 0.69382 113.933 0.413624C114.6 0.133427 115.321 0 116.068 0H124.194C124.914 0 125.581 0.133427 126.222 0.400281C126.862 0.667135 127.409 1.04073 127.89 1.52107C128.37 2.0014 128.73 2.54846 129.011 3.1889C129.291 3.81601 129.424 4.49649 129.424 5.21699C129.424 6.39115 129.077 7.43188 128.397 8.3125M113.573 7.57865H124.207C124.874 7.57865 125.435 7.35183 125.902 6.89817C126.355 6.43118 126.582 5.88413 126.582 5.21699C126.582 4.54986 126.355 3.98947 125.902 3.52247C125.448 3.06882 124.874 2.84199 124.207 2.84199H116.282C115.534 2.84199 114.894 3.10885 114.36 3.62921C114.12 3.86938 113.92 4.16292 113.773 4.48315C113.626 4.81671 113.56 5.16362 113.56 5.52388V7.57865H113.573ZM128.21 13.1025C128.21 12.7423 128.143 12.382 127.997 12.0618C127.85 11.7416 127.663 11.448 127.409 11.2079C126.889 10.7008 126.249 10.434 125.488 10.4206H113.56V13.4761C113.56 13.8497 113.626 14.1966 113.773 14.5169C113.92 14.8371 114.107 15.1306 114.36 15.3708C114.881 15.9045 115.521 16.158 116.282 16.158H125.501C126.262 16.158 126.889 15.8912 127.423 15.3708C127.676 15.1173 127.863 14.8371 128.01 14.5169C128.157 14.1966 128.223 13.8497 128.223 13.4761V13.1025H128.21Z" fill="#001944"/>
<path d="M148.771 10.6342C148.664 9.98036 148.398 9.47334 147.984 9.07306C147.49 8.53935 146.863 8.28584 146.089 8.28584H135.082V5.44385H146.276C147.05 5.44385 147.757 5.59062 148.424 5.87081C149.078 6.15101 149.652 6.55129 150.172 7.05831C150.679 7.57868 151.079 8.15242 151.373 8.80621C151.667 9.47334 151.8 10.1805 151.8 10.9544V13.4762C151.8 14.25 151.653 14.9705 151.373 15.6377C151.079 16.3048 150.679 16.8919 150.172 17.3989C149.652 17.9059 149.078 18.2929 148.424 18.5864C147.757 18.8666 147.05 19 146.276 19H138.951C138.19 19 137.47 18.8533 136.803 18.5864C136.149 18.3062 135.562 17.9059 135.055 17.3989C134.535 16.8919 134.148 16.3048 133.867 15.6377C133.574 14.9705 133.44 14.25 133.44 13.4762V10.6342H148.758H148.771ZM147.984 15.3708C148.504 14.8505 148.771 14.2233 148.771 13.4762L136.443 13.4495C136.443 14.1967 136.709 14.8505 137.23 15.3708C137.763 15.9045 138.404 16.158 139.151 16.158H146.076C146.85 16.158 147.477 15.8912 147.971 15.3708" fill="#001944"/>
<path d="M159.672 19C158.911 19 158.204 18.8532 157.537 18.573C156.87 18.2795 156.283 17.8792 155.776 17.3722C155.269 16.8919 154.868 16.3048 154.588 15.6376C154.295 14.9705 154.161 14.25 154.161 13.4761V13.4494V0H157.163V13.4494C157.163 13.823 157.217 14.1566 157.35 14.4768C157.483 14.7837 157.657 15.0772 157.884 15.3174C158.391 15.8244 159.005 16.1046 159.698 16.158L160.245 16.1847V19H159.645H159.672Z" fill="#001944"/>
<path d="M177.431 10.6342C177.324 9.98036 177.057 9.47334 176.644 9.07306C176.15 8.53935 175.523 8.28584 174.749 8.28584H163.741V5.44385H174.936C175.71 5.44385 176.417 5.59062 177.071 5.87081C177.738 6.15101 178.312 6.55129 178.819 7.05831C179.326 7.57868 179.726 8.15242 180.02 8.80621C180.313 9.47334 180.446 10.1805 180.446 10.9544V13.4762C180.446 14.25 180.3 14.9705 180.02 15.6377C179.726 16.3048 179.339 16.8919 178.819 17.3989C178.312 17.9059 177.725 18.2929 177.071 18.5864C176.417 18.8666 175.696 19 174.936 19H167.611C166.837 19 166.13 18.8533 165.476 18.5864C164.822 18.3062 164.235 17.9059 163.728 17.3989C163.221 16.8919 162.821 16.3048 162.541 15.6377C162.26 14.9705 162.127 14.25 162.127 13.4762V10.6342H177.444H177.431ZM176.644 15.3708C177.164 14.8505 177.431 14.2233 177.431 13.4762L165.116 13.4495C165.116 14.1967 165.383 14.8505 165.916 15.3708C166.437 15.9045 167.077 16.158 167.824 16.158H174.749C175.523 16.158 176.15 15.8912 176.644 15.3708Z" fill="#001944"/>
<path d="M188.092 19C187.318 19 186.598 18.8533 185.93 18.5864C185.263 18.3062 184.69 17.9059 184.182 17.3989C183.675 16.8919 183.275 16.3048 182.995 15.6377C182.701 14.9705 182.555 14.25 182.555 13.4762V10.9544C182.555 10.1805 182.701 9.46 182.995 8.80621C183.289 8.15242 183.689 7.57868 184.182 7.05831C184.676 6.55129 185.263 6.16435 185.93 5.87081C186.598 5.59062 187.318 5.44385 188.092 5.44385H200.234V8.28584H188.279C187.505 8.28584 186.878 8.53935 186.384 9.07306C186.131 9.32657 185.944 9.60677 185.784 9.94034C185.637 10.2606 185.557 10.6075 185.557 10.9811V13.4762C185.557 13.8497 185.623 14.1967 185.77 14.5169C185.917 14.8371 186.104 15.1306 186.357 15.3708C186.878 15.8912 187.518 16.158 188.279 16.158H200.914V19H188.092Z" fill="#001944"/>
<path d="M215.578 5.41714C216.352 5.41714 217.073 5.56391 217.74 5.8441C218.407 6.1243 218.994 6.53792 219.501 7.04494C220.008 7.56531 220.408 8.13905 220.688 8.79284C220.969 9.45997 221.102 10.1671 221.102 10.941V18.9867H218.1V10.9544C218.1 10.5808 218.033 10.2338 217.886 9.90028C217.753 9.56671 217.553 9.27318 217.313 9.03301C217.073 8.79284 216.779 8.5927 216.459 8.45927C216.139 8.3125 215.778 8.24579 215.391 8.24579H215.418H208.467C208.093 8.24579 207.746 8.3125 207.412 8.45927C207.079 8.60604 206.799 8.79284 206.545 9.03301C206.292 9.28652 206.105 9.56671 205.958 9.90028C205.825 10.2338 205.758 10.5808 205.758 10.9544V18.9867H202.756V0H205.758V6.0309C206.132 5.83076 206.545 5.68399 206.972 5.57725C207.399 5.48385 207.826 5.41714 208.293 5.41714H215.578Z" fill="#001944"/>
<path d="M238.674 10.6342C238.567 9.98036 238.301 9.47334 237.887 9.07306C237.393 8.53935 236.766 8.28584 235.992 8.28584H224.985V5.44385H236.179C236.953 5.44385 237.673 5.59062 238.327 5.87081C238.994 6.15101 239.568 6.55129 240.075 7.05831C240.582 7.57868 240.982 8.15242 241.276 8.80621C241.57 9.47334 241.703 10.1805 241.703 10.9544V13.4762C241.703 14.25 241.556 14.9705 241.276 15.6377C240.982 16.3048 240.596 16.8919 240.075 17.3989C239.568 17.9059 238.981 18.2929 238.327 18.5864C237.673 18.8666 236.953 19 236.179 19H228.854C228.093 19 227.373 18.8533 226.719 18.5864C226.065 18.3062 225.478 17.9059 224.971 17.3989C224.451 16.8919 224.051 16.3048 223.784 15.6377C223.504 14.9705 223.37 14.25 223.37 13.4762V10.6342H238.688H238.674ZM237.887 15.3708C238.421 14.8505 238.674 14.2233 238.674 13.4762L226.359 13.4495C226.359 14.1967 226.612 14.8505 227.146 15.3708C227.68 15.9045 228.307 16.158 229.054 16.158H235.979C236.753 16.158 237.38 15.8912 237.874 15.3708" fill="#001944"/>
<path d="M259.262 18.9999V10.9676C259.262 10.2071 258.996 9.56666 258.462 9.04629C258.222 8.80612 257.941 8.60598 257.608 8.47255C257.288 8.32578 256.941 8.25907 256.567 8.25907H249.616C249.242 8.25907 248.895 8.32578 248.575 8.47255C248.255 8.61932 247.961 8.80612 247.721 9.04629C247.187 9.56666 246.934 10.2071 246.934 10.9676V18.9999H243.932V10.9543C243.932 10.1804 244.078 9.45991 244.359 8.80612C244.639 8.15233 245.039 7.57859 245.546 7.05823C246.053 6.55121 246.64 6.15093 247.294 5.85739C247.948 5.57719 248.668 5.43042 249.442 5.43042H256.741C257.528 5.43042 258.235 5.57719 258.889 5.85739C259.556 6.13758 260.13 6.55121 260.637 7.05823C261.144 7.57859 261.544 8.15233 261.824 8.80612C262.104 9.47326 262.238 10.1804 262.238 10.9543V10.981V19.0133H259.236L259.262 18.9999Z" fill="#001944"/>
<path d="M264.506 10.9544C264.506 10.1805 264.639 9.45997 264.933 8.80618C265.226 8.15239 265.613 7.57865 266.134 7.05829C266.614 6.55126 267.201 6.16433 267.868 5.88413C268.535 5.60393 269.256 5.45716 270.03 5.45716H277.328C278.235 5.45716 279.076 5.6573 279.85 6.05758V0H282.852V13.4761C282.852 14.25 282.719 14.9705 282.425 15.6376C282.145 16.3048 281.758 16.8919 281.238 17.3989C280.731 17.9059 280.144 18.2928 279.476 18.573C278.809 18.8532 278.089 19 277.328 19H270.03C269.256 19 268.535 18.8532 267.868 18.573C267.214 18.2928 266.627 17.9059 266.134 17.3989C265.613 16.8919 265.226 16.3048 264.933 15.6376C264.639 14.9705 264.506 14.25 264.506 13.4761V10.9544ZM267.508 13.4494C267.508 13.8364 267.588 14.1833 267.735 14.5169C267.882 14.8371 268.082 15.1306 268.335 15.3708C268.829 15.9045 269.456 16.158 270.23 16.158H277.155C277.915 16.158 278.556 15.8912 279.076 15.3708C279.33 15.1173 279.516 14.8371 279.663 14.5169C279.797 14.1966 279.877 13.8364 279.877 13.4494V10.9677C279.877 10.5941 279.81 10.2605 279.663 9.92697C279.516 9.60674 279.33 9.3132 279.076 9.05969C278.542 8.52598 277.915 8.27247 277.155 8.27247H270.23C269.469 8.27247 268.829 8.52598 268.335 9.05969C268.095 9.3132 267.895 9.5934 267.735 9.92697C267.588 10.2472 267.508 10.5941 267.508 10.9677V13.4494Z" fill="#001944"/>
<path d="M295.741 5.44385V8.28584H290.911C290.164 8.28584 289.51 8.53935 288.99 9.07306C288.749 9.32657 288.563 9.60677 288.416 9.94034C288.269 10.2606 288.202 10.6075 288.202 10.9811V19.0134H285.2V10.9677C285.2 10.2072 285.347 9.50003 285.627 8.83289C285.907 8.16576 286.308 7.57868 286.801 7.07166C287.308 6.56463 287.895 6.1777 288.563 5.88416C289.23 5.60396 289.95 5.45719 290.724 5.45719H295.728L295.741 5.44385Z" fill="#001944"/>
<path d="M312.913 10.6342C312.793 9.98036 312.54 9.47334 312.113 9.07306C311.619 8.53935 310.978 8.28584 310.218 8.28584H299.21V5.44385H310.405C311.179 5.44385 311.886 5.59062 312.553 5.87081C313.207 6.15101 313.794 6.55129 314.301 7.05831C314.808 7.57868 315.208 8.15242 315.502 8.80621C315.795 9.47334 315.942 10.1805 315.942 10.9544V13.4762C315.942 14.25 315.795 14.9705 315.502 15.6377C315.208 16.3048 314.808 16.8919 314.301 17.3989C313.794 17.9059 313.207 18.2929 312.553 18.5864C311.886 18.8666 311.179 19 310.405 19H303.08C302.319 19 301.585 18.8533 300.945 18.5864C300.291 18.3062 299.704 17.9059 299.197 17.3989C298.69 16.8919 298.29 16.3048 298.023 15.6377C297.742 14.9705 297.596 14.25 297.596 13.4762V10.6342H312.926H312.913ZM312.113 15.3708C312.633 14.8505 312.913 14.2233 312.913 13.4762L300.584 13.4495C300.584 14.1967 300.851 14.8505 301.372 15.3708C301.892 15.9045 302.533 16.158 303.293 16.158H310.218C310.978 16.158 311.619 15.8912 312.113 15.3708Z" fill="#001944"/>
</g>
<defs>
<clipPath id="clip0_1936_4730">
<rect width="315.942" height="19" fill="white"/>
</clipPath>
</defs>
</svg>
