<svg width="18" height="20" viewBox="0 0 18 20" fill="none" xmlns="http://www.w3.org/2000/svg">
<path d="M7.15219 16.3749H0.75C0.650544 16.3749 0.555161 16.4144 0.484835 16.4847C0.414509 16.555 0.375 16.6504 0.375 16.7499C0.375 16.8493 0.414509 16.9447 0.484835 17.015C0.555161 17.0854 0.650544 17.1249 0.75 17.1249H7.15219C7.24275 17.7492 7.55517 18.3201 8.03223 18.733C8.50929 19.1458 9.11909 19.373 9.75 19.373C10.3809 19.373 10.9907 19.1458 11.4678 18.733C11.9448 18.3201 12.2572 17.7492 12.3478 17.1249H17.25C17.3495 17.1249 17.4448 17.0854 17.5152 17.015C17.5855 16.9447 17.625 16.8493 17.625 16.7499C17.625 16.6504 17.5855 16.555 17.5152 16.4847C17.4448 16.4144 17.3495 16.3749 17.25 16.3749H12.3478C12.2572 15.7505 11.9448 15.1796 11.4678 14.7668C10.9907 14.3539 10.3809 14.1267 9.75 14.1267C9.11909 14.1267 8.50929 14.3539 8.03223 14.7668C7.55517 15.1796 7.24275 15.7505 7.15219 16.3749ZM11.625 16.7499C11.625 17.1207 11.515 17.4832 11.309 17.7916C11.103 18.0999 10.8101 18.3402 10.4675 18.4821C10.1249 18.6241 9.74792 18.6612 9.3842 18.5888C9.02049 18.5165 8.6864 18.3379 8.42418 18.0757C8.16195 17.8135 7.98337 17.4794 7.91103 17.1157C7.83868 16.7519 7.87581 16.3749 8.01773 16.0323C8.15964 15.6897 8.39996 15.3969 8.70831 15.1909C9.01665 14.9848 9.37916 14.8749 9.75 14.8749C10.2473 14.8749 10.7242 15.0724 11.0758 15.424C11.4275 15.7757 11.625 16.2526 11.625 16.7499ZM2.65219 9.62487H0.75C0.650544 9.62487 0.555161 9.66438 0.484835 9.7347C0.414509 9.80503 0.375 9.90041 0.375 9.99987C0.375 10.0993 0.414509 10.1947 0.484835 10.265C0.555161 10.3354 0.650544 10.3749 0.75 10.3749H2.65219C2.74275 10.9992 3.05517 11.5701 3.53223 11.983C4.00929 12.3958 4.61909 12.623 5.25 12.623C5.88091 12.623 6.49071 12.3958 6.96777 11.983C7.44483 11.5701 7.75725 10.9992 7.84781 10.3749L17.25 10.3749C17.3495 10.3749 17.4448 10.3354 17.5152 10.265C17.5855 10.1947 17.625 10.0993 17.625 9.99987C17.625 9.90041 17.5855 9.80503 17.5152 9.7347C17.4448 9.66438 17.3495 9.62487 17.25 9.62487L7.84781 9.62487C7.75725 9.0005 7.44483 8.42963 6.96777 8.01678C6.49071 7.60392 5.88091 7.37669 5.25 7.37669C4.61909 7.37669 4.00929 7.60392 3.53223 8.01678C3.05517 8.42963 2.74275 9.0005 2.65219 9.62487ZM7.125 9.99987C7.125 10.3707 7.01503 10.7332 6.80901 11.0416C6.60298 11.3499 6.31014 11.5902 5.96753 11.7321C5.62492 11.8741 5.24792 11.9112 4.88421 11.8388C4.52049 11.7665 4.1864 11.5879 3.92417 11.3257C3.66195 11.0635 3.48337 10.7294 3.41103 10.3657C3.33868 10.002 3.37581 9.62495 3.51773 9.28234C3.65964 8.93973 3.89996 8.64689 4.20831 8.44086C4.51665 8.23484 4.87916 8.12487 5.25 8.12487C5.74728 8.12487 6.22419 8.32241 6.57583 8.67404C6.92746 9.02568 7.125 9.50259 7.125 9.99987ZM12.75 0.62487C12.1188 0.624935 11.5088 0.852419 11.0317 1.26564C10.5546 1.67887 10.2424 2.25017 10.1522 2.87487H0.75C0.650544 2.87487 0.555161 2.91438 0.484835 2.9847C0.414509 3.05503 0.375 3.15041 0.375 3.24987C0.375 3.34933 0.414509 3.44471 0.484835 3.51504C0.555161 3.58536 0.650544 3.62487 0.75 3.62487H10.1522C10.2428 4.24924 10.5552 4.82011 11.0322 5.23296C11.5093 5.64582 12.1191 5.87305 12.75 5.87305C13.3809 5.87305 13.9907 5.64582 14.4678 5.23296C14.9448 4.82011 15.2572 4.24924 15.3478 3.62487H17.25C17.3495 3.62487 17.4448 3.58536 17.5152 3.51504C17.5855 3.44471 17.625 3.34933 17.625 3.24987C17.625 3.15041 17.5855 3.05503 17.5152 2.9847C17.4448 2.91438 17.3495 2.87487 17.25 2.87487H15.3478C15.2576 2.25017 14.9454 1.67887 14.4683 1.26564C13.9912 0.852419 13.3812 0.624935 12.75 0.62487ZM14.625 3.24987C14.625 3.62071 14.515 3.98322 14.309 4.29156C14.103 4.59991 13.8101 4.84023 13.4675 4.98214C13.1249 5.12406 12.7479 5.16119 12.3842 5.08884C12.0205 5.0165 11.6864 4.83792 11.4242 4.5757C11.162 4.31347 10.9834 3.97938 10.911 3.61567C10.8387 3.25195 10.8758 2.87495 11.0177 2.53234C11.1596 2.18973 11.4 1.89689 11.7083 1.69086C12.0166 1.48484 12.3792 1.37487 12.75 1.37487C13.2473 1.37487 13.7242 1.57241 14.0758 1.92405C14.4275 2.27568 14.625 2.75259 14.625 3.24987Z" fill="#1E1E1E"/>
</svg>
